<?xml version="1.0" standalone="no"?>
<!DOCTYPE svg PUBLIC "-//W3C//DTD SVG 20010904//EN"
 "http://www.w3.org/TR/2001/REC-SVG-20010904/DTD/svg10.dtd">
<svg version="1.0" xmlns="http://www.w3.org/2000/svg"
 width="1024.000000pt" height="1024.000000pt" viewBox="0 0 1024.000000 1024.000000"
 preserveAspectRatio="xMidYMid meet">

<g transform="translate(0.000000,1024.000000) scale(0.100000,-0.100000)"
fill="#000000" stroke="none">
<path d="M0 5120 l0 -5120 5120 0 5120 0 0 5120 0 5120 -5120 0 -5120 0 0
-5120z m6499 2319 c127 -29 236 -116 300 -238 102 -196 149 -561 122 -951 -6
-91 -14 -213 -18 -271 l-6 -106 52 -86 c117 -195 200 -412 235 -622 43 -253
45 -495 6 -635 -59 -207 -213 -365 -394 -405 -39 -8 -136 -19 -216 -24 -188
-13 -268 -41 -360 -127 -91 -85 -130 -208 -130 -416 l0 -126 128 -4 c114 -3
130 -5 160 -26 51 -37 75 -93 70 -169 -3 -55 -8 -67 -38 -98 -19 -20 -50 -40
-70 -46 -23 -7 -316 -9 -875 -7 -921 4 -867 1 -1019 65 -70 29 -192 109 -254
167 -128 118 -238 327 -273 519 l-12 67 -86 0 c-168 1 -292 44 -425 150 -237
188 -353 531 -280 825 83 333 294 550 594 610 213 43 509 -47 620 -188 l22
-27 65 59 c146 135 404 281 567 322 26 6 46 15 44 20 -2 4 -62 73 -135 152
-278 303 -364 421 -409 562 -34 107 -42 260 -20 365 58 273 298 466 556 446
174 -13 246 -60 544 -357 120 -121 220 -219 223 -219 3 0 3 18 -1 40 -8 51 9
248 29 325 21 83 84 210 134 272 67 83 216 170 321 186 51 8 187 6 229 -4z"/>
<path d="M6263 7065 c-88 -44 -128 -125 -143 -290 -9 -98 -14 -455 -6 -455 2
0 41 -7 87 -16 128 -24 227 -59 307 -109 41 -25 76 -45 78 -45 2 0 4 123 4
273 0 284 -10 420 -36 499 -47 144 -168 204 -291 143z"/>
<path d="M3735 5147 c-196 -65 -315 -237 -317 -455 -2 -129 37 -232 121 -324
55 -60 126 -103 205 -124 45 -12 136 -19 136 -11 0 2 7 52 15 112 34 241 112
463 216 617 22 31 39 61 39 65 -1 14 -89 74 -148 101 -68 31 -201 40 -267 19z"/>
</g>
</svg>
