<svg xmlns="http://www.w3.org/2000/svg" viewBox="0 0 900 560" role="img" aria-label="Spanish Vocabulary Sports Travel and the Home placeholder certificate">
  <rect width="900" height="560" rx="28" fill="#f7f4ff"/>
  <rect x="46" y="46" width="808" height="468" rx="22" fill="#ffffff" stroke="#d7c9ff" stroke-width="2"/>
  <rect x="80" y="82" width="220" height="18" rx="9" fill="#7557d6"/>
  <text x="80" y="180" font-family="Arial, Helvetica, sans-serif" font-size="29" font-weight="700" fill="#2b1c47">Spanish Vocabulary: Sports, Travel, and the Home</text>
  <text x="80" y="220" font-family="Arial, Helvetica, sans-serif" font-size="18" fill="#584d74">University of California, Davis</text>
  <line x1="80" y1="252" x2="820" y2="252" stroke="#eadfff" stroke-width="2"/>
  <rect x="100" y="298" width="220" height="150" rx="16" fill="#f3edff" stroke="#d9ccff"/>
  <path d="M130 420V312h150v108M130 360h150M160 312v108" stroke="#7859d6" stroke-width="8" fill="none" stroke-linecap="round"/>
  <rect x="390" y="306" width="210" height="18" rx="9" fill="#d8cbff"/>
  <rect x="390" y="342" width="220" height="14" rx="7" fill="#efe7ff"/>
  <rect x="390" y="370" width="190" height="14" rx="7" fill="#efe7ff"/>
  <rect x="678" y="312" width="130" height="118" rx="18" fill="#efe7ff" stroke="#d7caef"/>
  <text x="710" y="378" font-family="Arial, Helvetica, sans-serif" font-size="24" font-weight="700" fill="#7152d8">ES</text>
  <rect x="80" y="472" width="250" height="18" rx="9" fill="#d8cbff"/>
  <rect x="350" y="472" width="200" height="18" rx="9" fill="#efe7ff"/>
</svg>
